<?xml version="1.0" encoding="UTF-8"?><svg id="Layer_2" xmlns="http://www.w3.org/2000/svg" viewBox="0 0 555 150.73"><defs><style>.cls-1{fill:#e1e1e1;}.cls-2{fill:#001d57;}</style></defs><g id="Layer_1-2"><path class="cls-2" d="M538.83,0H16.17C7.24,0,0,7.24,0,16.17v95.34c0,8.93,7.24,16.17,16.17,16.17h231.51l23.05,23.05,23.05-23.05h245.06c8.93,0,16.17-7.24,16.17-16.17V16.17c0-8.93-7.24-16.17-16.17-16.17Z"/><path class="cls-1" d="M57.58,92.95c-3.2-1.4-5.71-3.39-7.54-5.96-1.83-2.57-2.74-5.57-2.74-9h10.46c.23,2.57,1.24,4.69,3.04,6.34,1.8,1.66,4.33,2.49,7.58,2.49s6-.81,7.89-2.44c1.89-1.63,2.83-3.73,2.83-6.3,0-2-.59-3.63-1.76-4.88-1.17-1.26-2.63-2.23-4.37-2.91-1.74-.69-4.16-1.43-7.24-2.23-3.89-1.03-7.04-2.07-9.47-3.13-2.43-1.06-4.5-2.7-6.21-4.93s-2.57-5.2-2.57-8.91c0-3.43.86-6.43,2.57-9s4.11-4.54,7.2-5.91c3.09-1.37,6.66-2.06,10.71-2.06,5.77,0,10.5,1.44,14.19,4.33,3.69,2.89,5.73,6.84,6.13,11.87h-10.8c-.17-2.17-1.2-4.03-3.09-5.57-1.89-1.54-4.37-2.31-7.46-2.31-2.8,0-5.09.72-6.86,2.14-1.77,1.43-2.66,3.49-2.66,6.17,0,1.83.56,3.33,1.67,4.5,1.11,1.17,2.53,2.1,4.24,2.79s4.06,1.43,7.03,2.23c3.94,1.09,7.16,2.17,9.64,3.26,2.49,1.09,4.6,2.76,6.34,5.01,1.74,2.26,2.61,5.27,2.61,9.04,0,3.03-.81,5.89-2.44,8.57-1.63,2.69-4,4.84-7.11,6.47-3.11,1.63-6.79,2.44-11.01,2.44-4,0-7.6-.7-10.8-2.1Z"/><path class="cls-1" d="M167.67,48.77c2.94,1.54,5.26,3.83,6.94,6.86,1.68,3.03,2.53,6.69,2.53,10.97v27.86h-9.69v-26.4c0-4.23-1.06-7.47-3.17-9.73-2.11-2.26-5-3.39-8.66-3.39s-6.56,1.13-8.7,3.39c-2.14,2.26-3.21,5.5-3.21,9.73v26.4h-9.69v-26.4c0-4.23-1.06-7.47-3.17-9.73-2.11-2.26-5-3.39-8.66-3.39s-6.56,1.13-8.7,3.39c-2.14,2.26-3.21,5.5-3.21,9.73v26.4h-9.77v-47.23h9.77v5.4c1.6-1.94,3.63-3.46,6.09-4.54,2.46-1.09,5.08-1.63,7.89-1.63,3.77,0,7.14.8,10.11,2.4,2.97,1.6,5.26,3.91,6.86,6.94,1.43-2.86,3.66-5.13,6.69-6.81,3.03-1.68,6.28-2.53,9.77-2.53,3.71,0,7.04.77,9.99,2.31Z"/><path class="cls-1" d="M189.27,58.03c1.97-3.66,4.66-6.5,8.06-8.53,3.4-2.03,7.16-3.04,11.27-3.04,3.71,0,6.96.73,9.73,2.19,2.77,1.46,4.98,3.27,6.64,5.44v-6.86h9.86v47.23h-9.86v-7.03c-1.66,2.23-3.92,4.09-6.77,5.57-2.86,1.49-6.11,2.23-9.77,2.23-4.06,0-7.77-1.04-11.14-3.13-3.37-2.09-6.04-5-8.01-8.74-1.97-3.74-2.96-7.98-2.96-12.73s.99-8.94,2.96-12.6ZM222.96,62.31c-1.34-2.4-3.1-4.23-5.27-5.49-2.17-1.26-4.52-1.89-7.03-1.89s-4.86.61-7.03,1.84c-2.17,1.23-3.93,3.03-5.27,5.4-1.34,2.37-2.01,5.19-2.01,8.44s.67,6.11,2.01,8.57c1.34,2.46,3.11,4.33,5.31,5.61,2.2,1.29,4.53,1.93,6.99,1.93s4.86-.63,7.03-1.88c2.17-1.26,3.93-3.1,5.27-5.53,1.34-2.43,2.01-5.27,2.01-8.53s-.67-6.09-2.01-8.49Z"/><path class="cls-1" d="M263.15,48.47c2.37-1.34,5.18-2.01,8.44-2.01v10.11h-2.49c-3.83,0-6.73.97-8.7,2.91-1.97,1.94-2.96,5.31-2.96,10.11v24.86h-9.77v-47.23h9.77v6.86c1.43-2.4,3.33-4.27,5.7-5.61Z"/><path class="cls-1" d="M291.99,55.2v26.14c0,1.77.41,3.04,1.24,3.81.83.77,2.24,1.16,4.24,1.16h6v8.14h-7.71c-4.4,0-7.77-1.03-10.11-3.09-2.34-2.06-3.51-5.4-3.51-10.03v-26.14h-5.57v-7.97h5.57v-11.74h9.86v11.74h11.48v7.97h-11.48Z"/><path class="cls-1" d="M313.29,48.86c2.71-4.63,6.4-8.24,11.06-10.84,4.66-2.6,9.76-3.9,15.3-3.9,6.34,0,11.98,1.56,16.93,4.67,4.94,3.12,8.53,7.53,10.76,13.24h-11.74c-1.54-3.14-3.69-5.49-6.43-7.03-2.74-1.54-5.91-2.31-9.51-2.31-3.94,0-7.46.89-10.54,2.66-3.09,1.77-5.5,4.31-7.24,7.63-1.74,3.31-2.61,7.17-2.61,11.57s.87,8.26,2.61,11.57c1.74,3.32,4.16,5.87,7.24,7.67,3.09,1.8,6.6,2.7,10.54,2.7,3.6,0,6.77-.77,9.51-2.31s4.89-3.88,6.43-7.03h11.74c-2.23,5.71-5.82,10.11-10.76,13.2-4.94,3.09-10.58,4.63-16.93,4.63-5.6,0-10.71-1.3-15.34-3.9-4.63-2.6-8.3-6.21-11.01-10.84-2.71-4.63-4.07-9.86-4.07-15.69s1.36-11.06,4.07-15.69Z"/><path class="cls-1" d="M379.25,39.17c-1.2-1.2-1.8-2.68-1.8-4.46s.6-3.26,1.8-4.46c1.2-1.2,2.69-1.8,4.46-1.8s3.17.6,4.37,1.8c1.2,1.2,1.8,2.69,1.8,4.46s-.6,3.26-1.8,4.46c-1.2,1.2-2.66,1.8-4.37,1.8s-3.26-.6-4.46-1.8ZM388.5,47.23v47.23h-9.77v-47.23h9.77Z"/><path class="cls-1" d="M412.76,55.2v26.14c0,1.77.41,3.04,1.24,3.81.83.77,2.24,1.16,4.24,1.16h6v8.14h-7.71c-4.4,0-7.77-1.03-10.11-3.09-2.34-2.06-3.51-5.4-3.51-10.03v-26.14h-5.57v-7.97h5.57v-11.74h9.86v11.74h11.48v7.97h-11.48Z"/><path class="cls-1" d="M476.18,74.48h-36.08c.29,3.77,1.69,6.8,4.2,9.08,2.51,2.29,5.6,3.43,9.26,3.43,5.26,0,8.97-2.2,11.14-6.6h10.54c-1.43,4.34-4.01,7.9-7.76,10.67-3.74,2.77-8.39,4.16-13.93,4.16-4.51,0-8.56-1.01-12.13-3.04-3.57-2.03-6.37-4.89-8.4-8.57-2.03-3.69-3.04-7.96-3.04-12.81s.99-9.13,2.96-12.81c1.97-3.69,4.74-6.53,8.31-8.53,3.57-2,7.67-3,12.3-3s8.43.97,11.91,2.91c3.48,1.94,6.2,4.67,8.14,8.19,1.94,3.51,2.91,7.56,2.91,12.13,0,1.77-.12,3.37-.34,4.8ZM466.33,66.6c-.06-3.6-1.34-6.49-3.86-8.66-2.51-2.17-5.63-3.26-9.34-3.26-3.37,0-6.26,1.07-8.66,3.21-2.4,2.14-3.83,5.04-4.29,8.7h26.14Z"/><path class="cls-1" d="M492.53,52.24l-7.83,4.58c-1.19.69-2.16.06-2.16-1.41v-11.81c0-1.2.22-2.3.65-3.31.43-1.01,1-1.88,1.69-2.6.69-.72,1.49-1.29,2.38-1.7.89-.41,1.83-.62,2.81-.62h2.39c.54,0,.98.49.98,1.08l-.14,14.41c0,.52-.35,1.15-.77,1.4Z"/><path class="cls-1" d="M506.79,52.24l-7.83,4.58c-1.19.69-2.16.06-2.16-1.41v-11.81c0-1.2.22-2.3.65-3.31.43-1.01,1-1.88,1.69-2.6.69-.72,1.49-1.29,2.38-1.7.89-.41,1.83-.62,2.81-.62h2.39c.54,0,.98.49.98,1.08l-.14,14.41c0,.52-.35,1.15-.77,1.4Z"/></g></svg>